Coordinates
version=1
nRows=18
nColumns=22
inDegrees=yes

Units are S.I. units (second, meters, Newtons, ...)
If the header above contains a line with 'inDegrees', this indicates whether rotational values are in degrees (yes) or radians (no).

endheader
time	pelvis_tilt	pelvis_list	pelvis_rotation	pelvis_tx	pelvis_ty	pelvis_tz	hip_flexion_r	hip_adduction_r	hip_rotation_r	knee_angle_r	ankle_angle_r	subtalar_angle_r	hip_flexion_l	hip_adduction_l	hip_rotation_l	knee_angle_l	ankle_angle_l	subtalar_angle_l	lumbar_extension	lumbar_bending	lumbar_rotation
      0.01000000	     -0.50458073	     -3.22280734	     -9.58188778	     -1.09928970	      0.93621051	     -0.09591511	     -0.63654928	      1.37747843	      4.24811556	     -5.71438845	      2.84810687	      2.25790676	     -1.75208955	     -4.96571966	    -18.39551552	     -8.87025122	      8.52436420	      4.46513114	     -3.41017403	     -1.61260000	     -0.13538162
      0.02000000	     -0.49437543	     -3.23176820	     -9.55442960	     -1.09930687	      0.93621622	     -0.09584932	     -0.64553933	      1.39379316	      4.27572182	     -5.72658090	      2.87088541	      2.26117249	     -1.75589269	     -4.98293809	    -18.37990748	     -8.87742947	      8.50799011	      4.46989869	     -3.43383489	     -1.60339794	     -0.16992744
      0.03000000	     -0.47477895	     -3.22118302	     -9.51845827	     -1.09928726	      0.93622214	     -0.09581190	     -0.66372028	      1.38631058	      4.30892072	     -5.74080455	      2.88903014	      2.26067762	     -1.77274890	     -4.97303541	    -18.35056782	     -8.87096883	      8.50990181	      4.47738182	     -3.46054465	     -1.61233266	     -0.20567067
      0.04000000	     -0.41907149	     -3.18076247	     -9.45726556	     -1.09919874	      0.93625843	     -0.09584141	     -0.74386230	      1.33604908	      4.36082866	     -5.71003485	      2.95044824	      2.25242188	     -1.84235696	     -4.91394455	    -18.27438824	     -8.82193661	      8.49031905	      4.48584048	     -3.51958977	     -1.65647333	     -0.25406574
      0.05000000	     -0.31802422	     -3.13096151	     -9.40218246	     -1.09906502	      0.93635393	     -0.09590483	     -0.86232426	      1.26644785	      4.45148370	     -5.70319909	      2.98744338	      2.23243160	     -1.97955022	     -4.82723526	    -18.21463020	     -8.73583099	      8.43177482	      4.46576360	     -3.62564998	     -1.70867345	     -0.31146906
      0.06000000	     -0.26850395	     -3.05917092	     -9.32719212	     -1.09891852	      0.93634973	     -0.09603787	     -0.94435704	      1.17884739	      4.61568747	     -5.65878042	      3.05313510	      2.22520685	     -2.02828010	     -4.73147196	    -18.13999428	     -8.70624674	      8.42805164	      4.45479840	     -3.66571353	     -1.76855962	     -0.38469931
      0.07000000	     -0.13251394	     -2.95707118	     -9.25917867	     -1.09867535	      0.93646315	     -0.09623623	     -1.11587823	      1.03817024	      4.79869363	     -5.62370249	      3.13055804	      2.20230802	     -2.22004968	     -4.56376007	    -18.04875622	     -8.57004965	      8.33366905	      4.39389721	     -3.79210283	     -1.86369353	     -0.46321616
      0.08000000	     -0.01116361	     -2.84840791	     -9.17690523	     -1.09841381	      0.93654086	     -0.09648867	     -1.29038875	      0.89013482	      5.03030881	     -5.55530741	      3.21015176	      2.18350311	     -2.37662113	     -4.39484592	    -17.94929933	     -8.47117237	      8.27783098	      4.33394831	     -3.89808644	     -1.95666543	     -0.55387242
      0.09000000	      0.10919111	     -2.72984075	     -9.09322765	     -1.09813129	      0.93661304	     -0.09676211	     -1.46649786	      0.73007588	      5.27676222	     -5.48355148	      3.29578955	      2.16481871	     -2.53315290	     -4.21403514	    -17.84712493	     -8.36862425	      8.21529794	      4.27022553	     -3.99790824	     -2.05567076	     -0.64941505
      0.10000000	      0.23136591	     -2.61353678	     -9.01261726	     -1.09785391	      0.93669189	     -0.09703879	     -1.64738807	      0.57133559	      5.52308773	     -5.40616956	      3.37724991	      2.14457537	     -2.68915535	     -4.03617496	    -17.74464530	     -8.27382372	      8.15301167	      4.20025856	     -4.10134951	     -2.14841051	     -0.74383758
      0.11000000	      0.29100821	     -2.51459548	     -8.92513073	     -1.09763179	      0.93668887	     -0.09728586	     -1.76276480	      0.44532872	      5.75322393	     -5.32644000	      3.45486605	      2.13577505	     -2.74458579	     -3.90295693	    -17.65270298	     -8.24859239	      8.14591565	      4.17281790	     -4.13786236	     -2.21497392	     -0.84046992
      0.12000000	      0.42439525	     -2.41635774	     -8.87694828	     -1.09739930	      0.93681988	     -0.09747306	     -1.93879117	      0.30741042	      5.93591768	     -5.27623766	      3.50976375	      2.10683651	     -2.93531803	     -3.74060946	    -17.56755528	     -8.11892718	      8.04429419	      4.08111681	     -4.26005630	     -2.29036389	     -0.91557387
      0.13000000	      0.46239037	     -2.35586998	     -8.81657767	     -1.09728379	      0.93682562	     -0.09758878	     -2.01522051	      0.23331423	      6.08707795	     -5.21942339	      3.55557743	      2.09892160	     -2.96415827	     -3.66370894	    -17.50124415	     -8.11415699	      8.04333363	      4.05889886	     -4.28815764	     -2.31864460	     -0.98947224
      0.14000000	      0.50879879	     -2.30359802	     -8.77637730	     -1.09720526	      0.93687006	     -0.09762603	     -2.08776556	      0.16976199	      6.19181646	     -5.18202912	      3.58460914	      2.08458129	     -3.02097327	     -3.59276971	    -17.43980950	     -8.07401508	      8.00322184	      4.02204579	     -4.32872731	     -2.34651502	     -1.04733207
      0.15000000	      0.52359721	     -2.28643241	     -8.75481208	     -1.09722459	      0.93688985	     -0.09757413	     -2.09580960	      0.15710428	      6.23282906	     -5.19823805	      3.58291882	      2.07960893	     -3.03470994	     -3.57541215	    -17.43077533	     -8.06120442	      7.99209228	      4.01192066	     -4.34841896	     -2.33740189	     -1.09361151
      0.16000000	      0.52600170	     -2.27588482	     -8.74586876	     -1.09726972	      0.93690554	     -0.09747044	     -2.09682385	      0.15384030	      6.23697550	     -5.19649864	      3.58370026	      2.07862046	     -3.03335465	     -3.57106961	    -17.42920404	     -8.05797831	      7.98868040	      4.01009688	     -4.35243219	     -2.32403629	     -1.09598833
      0.17000000	      0.52663295	     -2.27410366	     -8.73013795	     -1.09736761	      0.93693570	     -0.09731778	     -2.09887566	      0.16386539	      6.23795607	     -5.18689338	      3.58131245	      2.06906808	     -3.03304634	     -3.58022316	    -17.40799465	     -8.04107115	      7.94419271	      3.99139376	     -4.36204200	     -2.30994154	     -1.14852386
      0.18000000	      0.51711843	     -2.28252510	     -8.72419728	     -1.09749256	      0.93695780	     -0.09713326	     -2.08203258	      0.18839315	      6.17663142	     -5.18698553	      3.56228127	      2.05958124	     -3.02084400	     -3.60443805	    -17.40120949	     -8.03177825	      7.91820074	      3.97785608	     -4.36208801	     -2.28762958	     -1.14684016
